<mxfile host="Electron" agent="Mozilla/5.0 (Macintosh; Intel Mac OS X 10_15_7) AppleWebKit/537.36 (KHTML, like Gecko) draw.io/26.1.1 Chrome/132.0.6834.210 Electron/34.3.3 Safari/537.36" version="26.1.1">
  <diagram name="Monolith-and-Microservices" id="gLfoCFHBY-cjhf6w2re_">
    <mxGraphModel dx="1366" dy="759" grid="1" gridSize="10" guides="1" tooltips="1" connect="1" arrows="1" fold="1" page="1" pageScale="1" pageWidth="827" pageHeight="1169" math="0" shadow="0">
      <root>
        <mxCell id="0" />
        <mxCell id="1" parent="0" />
        <mxCell id="qFpO-HRqYvE5LeFI2mVL-7" value="Bank" style="points=[[0,0],[0.25,0],[0.5,0],[0.75,0],[1,0],[1,0.25],[1,0.5],[1,0.75],[1,1],[0.75,1],[0.5,1],[0.25,1],[0,1],[0,0.75],[0,0.5],[0,0.25]];outlineConnect=0;gradientColor=none;html=1;whiteSpace=wrap;fontSize=12;fontStyle=0;container=1;pointerEvents=0;collapsible=0;recursiveResize=0;shape=mxgraph.aws4.group;grIcon=mxgraph.aws4.group_corporate_data_center;strokeColor=#7D8998;fillColor=none;verticalAlign=top;align=left;spacingLeft=30;fontColor=#5A6C86;dashed=0;" vertex="1" parent="1">
          <mxGeometry x="40" y="240" width="280" height="240" as="geometry" />
        </mxCell>
        <mxCell id="qFpO-HRqYvE5LeFI2mVL-2" value="&lt;b&gt;Monolithic Backend&lt;/b&gt;&lt;div&gt;(Web-App, User Service,&amp;nbsp;&lt;/div&gt;&lt;div&gt;ATM Locator, Account Service,&lt;/div&gt;&lt;div&gt;Transaction Service, Loan Service&lt;/div&gt;&lt;div&gt;BI &amp;amp; Analytics)&lt;/div&gt;&lt;div&gt;&lt;br&gt;&lt;/div&gt;" style="aspect=fixed;sketch=0;html=1;dashed=0;whitespace=wrap;verticalLabelPosition=bottom;verticalAlign=top;fillColor=#2875E2;strokeColor=#ffffff;points=[[0.005,0.63,0],[0.1,0.2,0],[0.9,0.2,0],[0.5,0,0],[0.995,0.63,0],[0.72,0.99,0],[0.5,1,0],[0.28,0.99,0]];shape=mxgraph.kubernetes.icon2;prIcon=pod" vertex="1" parent="qFpO-HRqYvE5LeFI2mVL-7">
          <mxGeometry x="118.33" y="80" width="41.67" height="40" as="geometry" />
        </mxCell>
        <mxCell id="qFpO-HRqYvE5LeFI2mVL-8" value="&lt;div&gt;Carol:&lt;/div&gt;Find an ATM in Stuttgart" style="sketch=0;outlineConnect=0;fillColor=#f8cecc;strokeColor=#b85450;dashed=0;verticalLabelPosition=top;verticalAlign=bottom;align=center;html=1;fontSize=12;fontStyle=0;aspect=fixed;pointerEvents=1;shape=mxgraph.aws4.user;labelPosition=center;" vertex="1" parent="1">
          <mxGeometry x="80" y="120" width="40" height="40" as="geometry" />
        </mxCell>
        <mxCell id="qFpO-HRqYvE5LeFI2mVL-9" value="&lt;div&gt;Bob:&lt;/div&gt;Transfer Money to Alice" style="sketch=0;outlineConnect=0;fillColor=#dae8fc;strokeColor=#6c8ebf;dashed=0;verticalLabelPosition=top;verticalAlign=bottom;align=center;html=1;fontSize=12;fontStyle=0;aspect=fixed;pointerEvents=1;shape=mxgraph.aws4.user;labelPosition=center;" vertex="1" parent="1">
          <mxGeometry x="160" y="40" width="40" height="40" as="geometry" />
        </mxCell>
        <mxCell id="qFpO-HRqYvE5LeFI2mVL-10" value="Alice:&lt;div&gt;Apply for Loan&lt;/div&gt;" style="sketch=0;outlineConnect=0;fillColor=#e1d5e7;strokeColor=#9673a6;dashed=0;verticalLabelPosition=top;verticalAlign=bottom;align=center;html=1;fontSize=12;fontStyle=0;aspect=fixed;pointerEvents=1;shape=mxgraph.aws4.user;labelPosition=center;" vertex="1" parent="1">
          <mxGeometry x="240" y="120" width="40" height="40" as="geometry" />
        </mxCell>
        <mxCell id="qFpO-HRqYvE5LeFI2mVL-11" value="Bank" style="points=[[0,0],[0.25,0],[0.5,0],[0.75,0],[1,0],[1,0.25],[1,0.5],[1,0.75],[1,1],[0.75,1],[0.5,1],[0.25,1],[0,1],[0,0.75],[0,0.5],[0,0.25]];outlineConnect=0;gradientColor=none;html=1;whiteSpace=wrap;fontSize=12;fontStyle=0;container=1;pointerEvents=0;collapsible=0;recursiveResize=0;shape=mxgraph.aws4.group;grIcon=mxgraph.aws4.group_corporate_data_center;strokeColor=#7D8998;fillColor=none;verticalAlign=top;align=left;spacingLeft=30;fontColor=#5A6C86;dashed=0;" vertex="1" parent="1">
          <mxGeometry x="360" y="240" width="480" height="240" as="geometry" />
        </mxCell>
        <mxCell id="qFpO-HRqYvE5LeFI2mVL-12" value="User Service" style="aspect=fixed;sketch=0;html=1;dashed=0;whitespace=wrap;verticalLabelPosition=bottom;verticalAlign=top;fillColor=#2875E2;strokeColor=#ffffff;points=[[0.005,0.63,0],[0.1,0.2,0],[0.9,0.2,0],[0.5,0,0],[0.995,0.63,0],[0.72,0.99,0],[0.5,1,0],[0.28,0.99,0]];shape=mxgraph.kubernetes.icon2;prIcon=pod" vertex="1" parent="qFpO-HRqYvE5LeFI2mVL-11">
          <mxGeometry x="159.17000000000002" y="80" width="41.67" height="40" as="geometry" />
        </mxCell>
        <mxCell id="qFpO-HRqYvE5LeFI2mVL-13" value="ATM Locator" style="aspect=fixed;sketch=0;html=1;dashed=0;whitespace=wrap;verticalLabelPosition=bottom;verticalAlign=top;fillColor=#2875E2;strokeColor=#ffffff;points=[[0.005,0.63,0],[0.1,0.2,0],[0.9,0.2,0],[0.5,0,0],[0.995,0.63,0],[0.72,0.99,0],[0.5,1,0],[0.28,0.99,0]];shape=mxgraph.kubernetes.icon2;prIcon=pod" vertex="1" parent="qFpO-HRqYvE5LeFI2mVL-11">
          <mxGeometry x="280" y="80" width="41.67" height="40" as="geometry" />
        </mxCell>
        <mxCell id="qFpO-HRqYvE5LeFI2mVL-14" value="Web-App" style="aspect=fixed;sketch=0;html=1;dashed=0;whitespace=wrap;verticalLabelPosition=bottom;verticalAlign=top;fillColor=#2875E2;strokeColor=#ffffff;points=[[0.005,0.63,0],[0.1,0.2,0],[0.9,0.2,0],[0.5,0,0],[0.995,0.63,0],[0.72,0.99,0],[0.5,1,0],[0.28,0.99,0]];shape=mxgraph.kubernetes.icon2;prIcon=pod" vertex="1" parent="qFpO-HRqYvE5LeFI2mVL-11">
          <mxGeometry x="40" y="80" width="41.67" height="40" as="geometry" />
        </mxCell>
        <mxCell id="qFpO-HRqYvE5LeFI2mVL-15" value="Accounts Service" style="aspect=fixed;sketch=0;html=1;dashed=0;whitespace=wrap;verticalLabelPosition=bottom;verticalAlign=top;fillColor=#2875E2;strokeColor=#ffffff;points=[[0.005,0.63,0],[0.1,0.2,0],[0.9,0.2,0],[0.5,0,0],[0.995,0.63,0],[0.72,0.99,0],[0.5,1,0],[0.28,0.99,0]];shape=mxgraph.kubernetes.icon2;prIcon=pod" vertex="1" parent="qFpO-HRqYvE5LeFI2mVL-11">
          <mxGeometry x="100.00000000000004" y="160" width="41.67" height="40" as="geometry" />
        </mxCell>
        <mxCell id="qFpO-HRqYvE5LeFI2mVL-17" value="Loan Service" style="aspect=fixed;sketch=0;html=1;dashed=0;whitespace=wrap;verticalLabelPosition=bottom;verticalAlign=top;fillColor=#2875E2;strokeColor=#ffffff;points=[[0.005,0.63,0],[0.1,0.2,0],[0.9,0.2,0],[0.5,0,0],[0.995,0.63,0],[0.72,0.99,0],[0.5,1,0],[0.28,0.99,0]];shape=mxgraph.kubernetes.icon2;prIcon=pod" vertex="1" parent="qFpO-HRqYvE5LeFI2mVL-11">
          <mxGeometry x="220" y="160" width="41.67" height="40" as="geometry" />
        </mxCell>
        <mxCell id="qFpO-HRqYvE5LeFI2mVL-16" value="Transaction Service" style="aspect=fixed;sketch=0;html=1;dashed=0;whitespace=wrap;verticalLabelPosition=bottom;verticalAlign=top;fillColor=#2875E2;strokeColor=#ffffff;points=[[0.005,0.63,0],[0.1,0.2,0],[0.9,0.2,0],[0.5,0,0],[0.995,0.63,0],[0.72,0.99,0],[0.5,1,0],[0.28,0.99,0]];shape=mxgraph.kubernetes.icon2;prIcon=pod" vertex="1" parent="qFpO-HRqYvE5LeFI2mVL-11">
          <mxGeometry x="340" y="160" width="41.67" height="40" as="geometry" />
        </mxCell>
        <mxCell id="qFpO-HRqYvE5LeFI2mVL-18" value="BI &amp;amp; Analytics" style="aspect=fixed;sketch=0;html=1;dashed=0;whitespace=wrap;verticalLabelPosition=bottom;verticalAlign=top;fillColor=#2875E2;strokeColor=#ffffff;points=[[0.005,0.63,0],[0.1,0.2,0],[0.9,0.2,0],[0.5,0,0],[0.995,0.63,0],[0.72,0.99,0],[0.5,1,0],[0.28,0.99,0]];shape=mxgraph.kubernetes.icon2;prIcon=pod" vertex="1" parent="qFpO-HRqYvE5LeFI2mVL-11">
          <mxGeometry x="400" y="80" width="41.67" height="40" as="geometry" />
        </mxCell>
        <mxCell id="qFpO-HRqYvE5LeFI2mVL-1" value="API Gateway" style="aspect=fixed;sketch=0;html=1;dashed=0;whitespace=wrap;verticalLabelPosition=bottom;verticalAlign=top;fillColor=#2875E2;strokeColor=#ffffff;points=[[0.005,0.63,0],[0.1,0.2,0],[0.9,0.2,0],[0.5,0,0],[0.995,0.63,0],[0.72,0.99,0],[0.5,1,0],[0.28,0.99,0]];shape=mxgraph.kubernetes.icon2;prIcon=api" vertex="1" parent="qFpO-HRqYvE5LeFI2mVL-11">
          <mxGeometry x="220" y="-20" width="41.67" height="40" as="geometry" />
        </mxCell>
        <mxCell id="qFpO-HRqYvE5LeFI2mVL-28" style="edgeStyle=orthogonalEdgeStyle;rounded=0;orthogonalLoop=1;jettySize=auto;html=1;exitX=0.5;exitY=1;exitDx=0;exitDy=0;exitPerimeter=0;entryX=0.5;entryY=0;entryDx=0;entryDy=0;entryPerimeter=0;" edge="1" parent="qFpO-HRqYvE5LeFI2mVL-11" source="qFpO-HRqYvE5LeFI2mVL-1" target="qFpO-HRqYvE5LeFI2mVL-14">
          <mxGeometry relative="1" as="geometry" />
        </mxCell>
        <mxCell id="qFpO-HRqYvE5LeFI2mVL-29" style="edgeStyle=orthogonalEdgeStyle;rounded=0;orthogonalLoop=1;jettySize=auto;html=1;exitX=0.5;exitY=1;exitDx=0;exitDy=0;exitPerimeter=0;entryX=0.5;entryY=0;entryDx=0;entryDy=0;entryPerimeter=0;" edge="1" parent="qFpO-HRqYvE5LeFI2mVL-11" source="qFpO-HRqYvE5LeFI2mVL-1" target="qFpO-HRqYvE5LeFI2mVL-15">
          <mxGeometry relative="1" as="geometry">
            <Array as="points">
              <mxPoint x="241" y="50" />
              <mxPoint x="121" y="50" />
            </Array>
          </mxGeometry>
        </mxCell>
        <mxCell id="qFpO-HRqYvE5LeFI2mVL-30" style="edgeStyle=orthogonalEdgeStyle;rounded=0;orthogonalLoop=1;jettySize=auto;html=1;exitX=0.5;exitY=1;exitDx=0;exitDy=0;exitPerimeter=0;entryX=0.5;entryY=0;entryDx=0;entryDy=0;entryPerimeter=0;" edge="1" parent="qFpO-HRqYvE5LeFI2mVL-11" source="qFpO-HRqYvE5LeFI2mVL-1" target="qFpO-HRqYvE5LeFI2mVL-12">
          <mxGeometry relative="1" as="geometry" />
        </mxCell>
        <mxCell id="qFpO-HRqYvE5LeFI2mVL-31" style="edgeStyle=orthogonalEdgeStyle;rounded=0;orthogonalLoop=1;jettySize=auto;html=1;exitX=0.5;exitY=1;exitDx=0;exitDy=0;exitPerimeter=0;entryX=0.5;entryY=0;entryDx=0;entryDy=0;entryPerimeter=0;" edge="1" parent="qFpO-HRqYvE5LeFI2mVL-11" source="qFpO-HRqYvE5LeFI2mVL-1" target="qFpO-HRqYvE5LeFI2mVL-17">
          <mxGeometry relative="1" as="geometry" />
        </mxCell>
        <mxCell id="qFpO-HRqYvE5LeFI2mVL-32" style="edgeStyle=orthogonalEdgeStyle;rounded=0;orthogonalLoop=1;jettySize=auto;html=1;exitX=0.5;exitY=1;exitDx=0;exitDy=0;exitPerimeter=0;entryX=0.5;entryY=0;entryDx=0;entryDy=0;entryPerimeter=0;" edge="1" parent="qFpO-HRqYvE5LeFI2mVL-11" source="qFpO-HRqYvE5LeFI2mVL-1" target="qFpO-HRqYvE5LeFI2mVL-13">
          <mxGeometry relative="1" as="geometry" />
        </mxCell>
        <mxCell id="qFpO-HRqYvE5LeFI2mVL-33" style="edgeStyle=orthogonalEdgeStyle;rounded=0;orthogonalLoop=1;jettySize=auto;html=1;exitX=0.5;exitY=1;exitDx=0;exitDy=0;exitPerimeter=0;entryX=0.5;entryY=0;entryDx=0;entryDy=0;entryPerimeter=0;" edge="1" parent="qFpO-HRqYvE5LeFI2mVL-11" source="qFpO-HRqYvE5LeFI2mVL-1" target="qFpO-HRqYvE5LeFI2mVL-16">
          <mxGeometry relative="1" as="geometry">
            <Array as="points">
              <mxPoint x="241" y="50" />
              <mxPoint x="361" y="50" />
            </Array>
          </mxGeometry>
        </mxCell>
        <mxCell id="qFpO-HRqYvE5LeFI2mVL-34" style="edgeStyle=orthogonalEdgeStyle;rounded=0;orthogonalLoop=1;jettySize=auto;html=1;exitX=0.5;exitY=1;exitDx=0;exitDy=0;exitPerimeter=0;entryX=0.5;entryY=0;entryDx=0;entryDy=0;entryPerimeter=0;" edge="1" parent="qFpO-HRqYvE5LeFI2mVL-11" source="qFpO-HRqYvE5LeFI2mVL-1" target="qFpO-HRqYvE5LeFI2mVL-18">
          <mxGeometry relative="1" as="geometry" />
        </mxCell>
        <mxCell id="qFpO-HRqYvE5LeFI2mVL-50" value="" style="edgeStyle=none;orthogonalLoop=1;jettySize=auto;html=1;rounded=0;fillColor=#dae8fc;strokeColor=#6c8ebf;entryX=0.9;entryY=0.2;entryDx=0;entryDy=0;entryPerimeter=0;exitX=0.995;exitY=0.63;exitDx=0;exitDy=0;exitPerimeter=0;dashed=1;" edge="1" parent="qFpO-HRqYvE5LeFI2mVL-11" source="qFpO-HRqYvE5LeFI2mVL-1" target="qFpO-HRqYvE5LeFI2mVL-16">
          <mxGeometry width="80" relative="1" as="geometry">
            <mxPoint x="290" y="30" as="sourcePoint" />
            <mxPoint x="291" y="170" as="targetPoint" />
            <Array as="points">
              <mxPoint x="378" y="40" />
            </Array>
          </mxGeometry>
        </mxCell>
        <mxCell id="qFpO-HRqYvE5LeFI2mVL-49" value="" style="edgeStyle=none;orthogonalLoop=1;jettySize=auto;html=1;rounded=0;fillColor=#f8cecc;strokeColor=#b85450;exitX=0.72;exitY=0.99;exitDx=0;exitDy=0;exitPerimeter=0;entryX=0.1;entryY=0.2;entryDx=0;entryDy=0;entryPerimeter=0;dashed=1;" edge="1" parent="qFpO-HRqYvE5LeFI2mVL-11" source="qFpO-HRqYvE5LeFI2mVL-1" target="qFpO-HRqYvE5LeFI2mVL-13">
          <mxGeometry width="80" relative="1" as="geometry">
            <mxPoint x="150" y="-30" as="sourcePoint" />
            <mxPoint x="290" y="90" as="targetPoint" />
            <Array as="points">
              <mxPoint x="284" y="30" />
            </Array>
          </mxGeometry>
        </mxCell>
        <mxCell id="qFpO-HRqYvE5LeFI2mVL-51" value="" style="edgeStyle=none;orthogonalLoop=1;jettySize=auto;html=1;rounded=0;fillColor=#e1d5e7;strokeColor=#9673a6;entryX=0.1;entryY=0.2;entryDx=0;entryDy=0;entryPerimeter=0;exitX=0.28;exitY=0.99;exitDx=0;exitDy=0;exitPerimeter=0;dashed=1;" edge="1" parent="qFpO-HRqYvE5LeFI2mVL-11" source="qFpO-HRqYvE5LeFI2mVL-1" target="qFpO-HRqYvE5LeFI2mVL-17">
          <mxGeometry width="80" relative="1" as="geometry">
            <mxPoint x="211" y="12" as="sourcePoint" />
            <mxPoint x="149" y="80" as="targetPoint" />
            <Array as="points">
              <mxPoint x="190" y="30" />
            </Array>
          </mxGeometry>
        </mxCell>
        <mxCell id="qFpO-HRqYvE5LeFI2mVL-39" value="" style="edgeStyle=none;orthogonalLoop=1;jettySize=auto;html=1;rounded=0;fillColor=#f8cecc;strokeColor=#b85450;entryX=0.1;entryY=0.2;entryDx=0;entryDy=0;entryPerimeter=0;" edge="1" parent="1" target="qFpO-HRqYvE5LeFI2mVL-2">
          <mxGeometry width="80" relative="1" as="geometry">
            <mxPoint x="100" y="160" as="sourcePoint" />
            <mxPoint x="330" y="190" as="targetPoint" />
            <Array as="points" />
          </mxGeometry>
        </mxCell>
        <mxCell id="qFpO-HRqYvE5LeFI2mVL-40" value="" style="edgeStyle=none;orthogonalLoop=1;jettySize=auto;html=1;rounded=0;fillColor=#dae8fc;strokeColor=#6c8ebf;entryX=0.5;entryY=0;entryDx=0;entryDy=0;entryPerimeter=0;" edge="1" parent="1" source="qFpO-HRqYvE5LeFI2mVL-9" target="qFpO-HRqYvE5LeFI2mVL-2">
          <mxGeometry width="80" relative="1" as="geometry">
            <mxPoint x="179" y="160" as="sourcePoint" />
            <mxPoint x="189" y="330" as="targetPoint" />
            <Array as="points" />
          </mxGeometry>
        </mxCell>
        <mxCell id="qFpO-HRqYvE5LeFI2mVL-41" value="" style="edgeStyle=none;orthogonalLoop=1;jettySize=auto;html=1;rounded=0;fillColor=#e1d5e7;strokeColor=#9673a6;entryX=0.9;entryY=0.2;entryDx=0;entryDy=0;entryPerimeter=0;" edge="1" parent="1" target="qFpO-HRqYvE5LeFI2mVL-2">
          <mxGeometry width="80" relative="1" as="geometry">
            <mxPoint x="260" y="160" as="sourcePoint" />
            <mxPoint x="199" y="340" as="targetPoint" />
            <Array as="points">
              <mxPoint x="260" y="160" />
            </Array>
          </mxGeometry>
        </mxCell>
        <mxCell id="qFpO-HRqYvE5LeFI2mVL-42" value="" style="edgeStyle=none;orthogonalLoop=1;jettySize=auto;html=1;rounded=0;fillColor=#f8cecc;strokeColor=#b85450;entryX=0.1;entryY=0.2;entryDx=0;entryDy=0;entryPerimeter=0;" edge="1" parent="1" target="qFpO-HRqYvE5LeFI2mVL-1">
          <mxGeometry width="80" relative="1" as="geometry">
            <mxPoint x="520" y="160" as="sourcePoint" />
            <mxPoint x="209" y="350" as="targetPoint" />
            <Array as="points" />
          </mxGeometry>
        </mxCell>
        <mxCell id="qFpO-HRqYvE5LeFI2mVL-44" value="" style="edgeStyle=none;orthogonalLoop=1;jettySize=auto;html=1;rounded=0;fillColor=#dae8fc;strokeColor=#6c8ebf;entryX=0.5;entryY=0;entryDx=0;entryDy=0;entryPerimeter=0;" edge="1" parent="1" target="qFpO-HRqYvE5LeFI2mVL-1">
          <mxGeometry width="80" relative="1" as="geometry">
            <mxPoint x="600" y="80" as="sourcePoint" />
            <mxPoint x="229" y="370" as="targetPoint" />
            <Array as="points" />
          </mxGeometry>
        </mxCell>
        <mxCell id="qFpO-HRqYvE5LeFI2mVL-45" value="" style="edgeStyle=none;orthogonalLoop=1;jettySize=auto;html=1;rounded=0;fillColor=#e1d5e7;strokeColor=#9673a6;entryX=0.9;entryY=0.2;entryDx=0;entryDy=0;entryPerimeter=0;" edge="1" parent="1" target="qFpO-HRqYvE5LeFI2mVL-1">
          <mxGeometry width="80" relative="1" as="geometry">
            <mxPoint x="680" y="160" as="sourcePoint" />
            <mxPoint x="239" y="380" as="targetPoint" />
            <Array as="points" />
          </mxGeometry>
        </mxCell>
        <mxCell id="qFpO-HRqYvE5LeFI2mVL-46" value="&lt;div&gt;Carol:&lt;/div&gt;Find an ATM in Stuttgart" style="sketch=0;outlineConnect=0;fillColor=#f8cecc;strokeColor=#b85450;dashed=0;verticalLabelPosition=top;verticalAlign=bottom;align=center;html=1;fontSize=12;fontStyle=0;aspect=fixed;pointerEvents=1;shape=mxgraph.aws4.user;labelPosition=center;" vertex="1" parent="1">
          <mxGeometry x="500" y="120" width="40" height="40" as="geometry" />
        </mxCell>
        <mxCell id="qFpO-HRqYvE5LeFI2mVL-47" value="&lt;div&gt;Bob:&lt;/div&gt;Transfer Money to Alice" style="sketch=0;outlineConnect=0;fillColor=#dae8fc;strokeColor=#6c8ebf;dashed=0;verticalLabelPosition=top;verticalAlign=bottom;align=center;html=1;fontSize=12;fontStyle=0;aspect=fixed;pointerEvents=1;shape=mxgraph.aws4.user;labelPosition=center;" vertex="1" parent="1">
          <mxGeometry x="580" y="40" width="40" height="40" as="geometry" />
        </mxCell>
        <mxCell id="qFpO-HRqYvE5LeFI2mVL-48" value="Alice:&lt;div&gt;Apply for Loan&lt;/div&gt;" style="sketch=0;outlineConnect=0;fillColor=#e1d5e7;strokeColor=#9673a6;dashed=0;verticalLabelPosition=top;verticalAlign=bottom;align=center;html=1;fontSize=12;fontStyle=0;aspect=fixed;pointerEvents=1;shape=mxgraph.aws4.user;labelPosition=center;" vertex="1" parent="1">
          <mxGeometry x="660" y="120" width="40" height="40" as="geometry" />
        </mxCell>
      </root>
    </mxGraphModel>
  </diagram>
</mxfile>
